<svg xmlns="http://www.w3.org/2000/svg" viewBox="0 0 120 120" role="img" aria-label="Gloria avatar">
  <defs>
    <linearGradient id="bg" x1="0" y1="0" x2="1" y2="1">
      <stop offset="0" stop-color="#ffe7c7"/>
      <stop offset="1" stop-color="#f59e8b"/>
    </linearGradient>
  </defs>
  <rect width="120" height="120" rx="30" fill="url(#bg)"/>
  <circle cx="61" cy="62" r="31" fill="#ffd5ad"/>
  <path d="M27 60c3-25 18-41 38-41 21 0 33 16 33 39-15-15-40-22-71 2z" fill="#c97933"/>
  <path d="M35 35c18-18 45-17 55 4-18-7-36-7-55-4z" fill="#e2a160"/>
  <path d="M37 66h19c3 0 5 2 5 5 0 7-5 13-13 13-8 0-14-6-14-14 0-2 1-4 3-4zm27 0h20c2 0 4 2 4 4 0 8-6 14-14 14-8 0-14-6-14-13 0-3 2-5 4-5z" fill="#201a16"/>
  <path d="M56 70c3-2 6-2 9 0" fill="none" stroke="#201a16" stroke-width="3" stroke-linecap="round"/>
  <path d="M51 94c7 5 19 5 26 0" fill="none" stroke="#b4532d" stroke-width="4" stroke-linecap="round"/>
  <path d="M26 104c5-17 19-26 37-26s33 9 38 26" fill="#fff7ed"/>
  <path d="M30 104c6-9 17-15 33-15s27 6 33 15" fill="#f97316" opacity=".82"/>
</svg>
