<svg xmlns="http://www.w3.org/2000/svg" viewBox="0 0 120 120" role="img" aria-label="Kira avatar">
  <defs>
    <linearGradient id="bg" x1="0" y1="0" x2="1" y2="1">
      <stop offset="0" stop-color="#bfdbfe"/>
      <stop offset="1" stop-color="#38bdf8"/>
    </linearGradient>
  </defs>
  <rect width="120" height="120" rx="30" fill="url(#bg)"/>
  <circle cx="62" cy="62" r="31" fill="#ffd6b3"/>
  <path d="M29 58c2-24 17-39 37-39 19 0 31 14 32 35-20-17-44-18-69 4z" fill="#1f2937"/>
  <path d="M39 65c7-7 18-7 25 0" fill="none" stroke="#1f2937" stroke-width="4" stroke-linecap="round"/>
  <path d="M67 65c7-7 18-7 25 0" fill="none" stroke="#1f2937" stroke-width="4" stroke-linecap="round"/>
  <rect x="28" y="58" width="16" height="29" rx="5" fill="#f8fafc" stroke="#2563eb" stroke-width="3"/>
  <path d="M50 92c8 6 20 6 28 0" fill="none" stroke="#b4532d" stroke-width="4" stroke-linecap="round"/>
  <path d="M22 105c8-18 22-28 42-28s34 10 42 28" fill="#fef3c7"/>
  <path d="M40 105c7-9 16-13 24-13s17 4 24 13" fill="#f59e0b"/>
</svg>
