<svg xmlns="http://www.w3.org/2000/svg" viewBox="0 0 120 120" role="img" aria-label="RayYu avatar">
  <defs>
    <linearGradient id="bg" x1="0" y1="0" x2="1" y2="1">
      <stop offset="0" stop-color="#fed7aa"/>
      <stop offset="1" stop-color="#fbbf24"/>
    </linearGradient>
  </defs>
  <rect width="120" height="120" rx="30" fill="url(#bg)"/>
  <circle cx="61" cy="62" r="31" fill="#f3c49b"/>
  <path d="M29 53c2-23 17-35 36-35 20 0 32 12 34 34-21-15-44-17-70 1z" fill="#3b2415"/>
  <circle cx="49" cy="67" r="10" fill="none" stroke="#111827" stroke-width="4"/>
  <circle cx="76" cy="67" r="10" fill="none" stroke="#111827" stroke-width="4"/>
  <path d="M59 67h7" stroke="#111827" stroke-width="4" stroke-linecap="round"/>
  <circle cx="49" cy="67" r="3" fill="#111827"/>
  <circle cx="76" cy="67" r="3" fill="#111827"/>
  <path d="M53 92c7 5 18 5 25 0" fill="none" stroke="#92400e" stroke-width="4" stroke-linecap="round"/>
  <path d="M24 105c7-18 21-28 39-28s32 10 39 28" fill="#78350f"/>
  <path d="M39 105c7-8 16-12 24-12s17 4 24 12" fill="#fde68a"/>
</svg>
