<svg xmlns="http://www.w3.org/2000/svg" width="960" height="540" viewBox="0 0 960 540" role="img" aria-label="场景图复刻模板封面">
  <defs>
    <linearGradient id="bg" x1="0" y1="0" x2="1" y2="1">
      <stop offset="0" stop-color="#ffffff"/>
      <stop offset="0.48" stop-color="#dcfce7"/>
      <stop offset="1" stop-color="#f8fafc"/>
    </linearGradient>
    <linearGradient id="accent" x1="0" y1="0" x2="1" y2="1">
      <stop offset="0" stop-color="#22c55e" stop-opacity="0.95"/>
      <stop offset="1" stop-color="#22c55e" stop-opacity="0.55"/>
    </linearGradient>
    <filter id="shadow" x="-20%" y="-20%" width="140%" height="140%">
      <feDropShadow dx="0" dy="24" stdDeviation="26" flood-color="#0f172a" flood-opacity="0.14"/>
    </filter>
  </defs>
  <rect width="960" height="540" rx="0" fill="url(#bg)"/>
  <circle cx="828" cy="96" r="148" fill="#22c55e" opacity="0.13"/>
  <circle cx="102" cy="470" r="176" fill="#22c55e" opacity="0.08"/>
  <rect x="96" y="78" width="768" height="384" rx="38" fill="#ffffff" opacity="0.88" filter="url(#shadow)"/>
  <rect x="124" y="108" width="328" height="324" rx="30" fill="url(#accent)"/>
  <rect x="158" y="144" width="260" height="58" rx="18" fill="#ffffff" opacity="0.86"/>
  <rect x="158" y="222" width="190" height="28" rx="14" fill="#ffffff" opacity="0.72"/>
  <rect x="158" y="268" width="228" height="28" rx="14" fill="#ffffff" opacity="0.48"/>
  <rect x="158" y="326" width="104" height="68" rx="20" fill="#ffffff" opacity="0.72"/>
  <rect x="282" y="326" width="104" height="68" rx="20" fill="#ffffff" opacity="0.42"/>
  <text x="490" y="172" font-family="Inter, PingFang SC, Microsoft YaHei, Arial, sans-serif" font-size="28" font-weight="800" fill="#052e16">场景</text>
  <text x="490" y="224" font-family="Inter, PingFang SC, Microsoft YaHei, Arial, sans-serif" font-size="43" font-weight="900" fill="#0f172a">场景图复刻</text>
  <text x="490" y="274" font-family="Inter, PingFang SC, Microsoft YaHei, Arial, sans-serif" font-size="22" font-weight="600" fill="#475569">环境、光影、构图</text>
  <rect x="490" y="320" width="300" height="46" rx="23" fill="#22c55e" opacity="0.12"/>
  <text x="514" y="350" font-family="Inter, PingFang SC, Microsoft YaHei, Arial, sans-serif" font-size="19" font-weight="700" fill="#052e16">精修 · 质感 · 场景</text>
  <text x="124" y="492" font-family="Inter, PingFang SC, Microsoft YaHei, Arial, sans-serif" font-size="18" font-weight="700" fill="#64748b">HAJIMI AI TEMPLATE</text>
</svg>